<svg xmlns="http://www.w3.org/2000/svg" viewBox="0 0 36 36">
  <!-- Shield body -->
  <path d="M18 3 L31 8.5 L31 19 C31 26.5 24.5 31.5 18 34 C11.5 31.5 5 26.5 5 19 L5 8.5 Z"
        fill="#1A3461" stroke="#D98A2B" stroke-width="0.9"/>
  <!-- Inner shield highlight -->
  <path d="M18 5.5 L29 10.3 L29 19 C29 25.4 23.3 29.8 18 32 C12.7 29.8 7 25.4 7 19 L7 10.3 Z"
        fill="none" stroke="#D98A2B" stroke-width="0.5" opacity="0.4"/>
  <!-- Lock body -->
  <rect x="13.5" y="18" width="9" height="7.5" rx="1.2" fill="#D98A2B"/>
  <!-- Lock shackle -->
  <path d="M15 18 L15 15.5 C15 13.6 21 13.6 21 15.5 L21 18"
        fill="none" stroke="#FFCD00" stroke-width="1.5" stroke-linecap="round"/>
  <!-- Keyhole -->
  <circle cx="18" cy="21.2" r="1.3" fill="#1A3461"/>
  <rect x="17.4" y="21.5" width="1.2" height="2.2" rx="0.5" fill="#1A3461"/>
  <!-- Corner Vietnamese star top-left -->
  <path d="M9 7.5 L9.6 9.3 L11.5 9.3 L10 10.4 L10.6 12.2 L9 11.1 L7.4 12.2 L8 10.4 L6.5 9.3 L8.4 9.3 Z"
        fill="#FFCD00" opacity="0.7" transform="scale(0.55) translate(7 3)"/>
</svg>
